<?xml version="1.0" encoding="UTF-8" ?>
<svg version="1.1" width="125" height="125" xmlns="http://www.w3.org/2000/svg" shape-rendering="crispEdges">
<rect x="10" y="0" width="1" height="1" fill="#030405" opacity="0.713725" />
<rect x="11" y="0" width="1" height="1" fill="#010101" opacity="0.984314" />
<rect x="12" y="0" width="101" height="4" fill="#000000" />
<rect x="113" y="0" width="1" height="1" fill="#010101" opacity="0.984314" />
<rect x="114" y="0" width="1" height="1" fill="#030405" opacity="0.713725" />
<rect x="8" y="1" width="1" height="1" fill="#010102" opacity="0.941176" />
<rect x="9" y="1" width="3" height="4" fill="#000000" />
<rect x="113" y="1" width="3" height="3" fill="#000000" />
<rect x="116" y="1" width="1" height="1" fill="#010102" opacity="0.941176" />
<rect x="6" y="2" width="1" height="1" fill="#030405" opacity="0.713725" />
<rect x="7" y="2" width="2" height="5" fill="#000000" />
<rect x="116" y="2" width="2" height="4" fill="#000000" />
<rect x="118" y="2" width="1" height="1" fill="#030405" opacity="0.713725" />
<rect x="5" y="3" width="1" height="1" fill="#010102" opacity="0.941176" />
<rect x="6" y="3" width="1" height="5" fill="#000000" />
<rect x="118" y="3" width="1" height="4" fill="#000000" />
<rect x="119" y="3" width="1" height="1" fill="#010102" opacity="0.941176" />
<rect x="4" y="4" width="1" height="1" fill="#010102" opacity="0.941176" />
<rect x="5" y="4" width="1" height="5" fill="#000000" />
<rect x="12" y="4" width="43" height="1" fill="#000000" />
<rect x="55" y="4" width="1" height="117" fill="#C71585" />
<rect x="56" y="4" width="15" height="117" fill="#FF69B4" />
<rect x="71" y="4" width="41" height="1" fill="#000000" />
<rect x="112" y="4" width="1" height="1" fill="#010101" />
<rect x="113" y="4" width="1" height="1" fill="#030303" />
<rect x="114" y="4" width="2" height="1" fill="#000000" />
<rect x="119" y="4" width="1" height="5" fill="#000000" />
<rect x="120" y="4" width="1" height="1" fill="#010102" opacity="0.941176" />
<rect x="3" y="5" width="1" height="1" fill="#010102" opacity="0.941176" />
<rect x="4" y="5" width="1" height="5" fill="#000000" />
<rect x="9" y="5" width="1" height="1" fill="#020202" />
<rect x="10" y="5" width="43" height="3" fill="#000000" />
<rect x="53" y="5" width="2" height="1" fill="#C71585" />
<rect x="71" y="5" width="2" height="116" fill="#FF69B4" />
<rect x="73" y="5" width="41" height="2" fill="#000000" />
<rect x="114" y="5" width="1" height="1" fill="#030303" />
<rect x="115" y="5" width="1" height="1" fill="#070707" />
<rect x="120" y="5" width="1" height="5" fill="#000000" />
<rect x="121" y="5" width="1" height="1" fill="#010102" opacity="0.941176" />
<rect x="2" y="6" width="1" height="1" fill="#030405" opacity="0.713725" />
<rect x="3" y="6" width="1" height="113" fill="#000000" />
<rect x="9" y="6" width="1" height="84" fill="#000000" />
<rect x="53" y="6" width="2" height="115" fill="#FF69B4" />
<rect x="114" y="6" width="2" height="81" fill="#000000" />
<rect x="116" y="6" width="1" height="1" fill="#0D0D0D" />
<rect x="117" y="6" width="1" height="1" fill="#010101" />
<rect x="121" y="6" width="1" height="113" fill="#000000" />
<rect x="122" y="6" width="1" height="1" fill="#030405" opacity="0.713725" />
<rect x="2" y="7" width="1" height="111" fill="#000000" />
<rect x="7" y="7" width="1" height="1" fill="#010101" />
<rect x="8" y="7" width="1" height="83" fill="#000000" />
<rect x="73" y="7" width="3" height="114" fill="#FF69B4" />
<rect x="76" y="7" width="38" height="5" fill="#000000" />
<rect x="116" y="7" width="1" height="83" fill="#000000" />
<rect x="117" y="7" width="1" height="1" fill="#101010" />
<rect x="118" y="7" width="1" height="1" fill="#010101" />
<rect x="122" y="7" width="1" height="111" fill="#000000" />
<rect x="1" y="8" width="1" height="1" fill="#010102" opacity="0.941176" />
<rect x="6" y="8" width="1" height="1" fill="#040404" />
<rect x="7" y="8" width="1" height="87" fill="#000000" />
<rect x="10" y="8" width="41" height="4" fill="#000000" />
<rect x="51" y="8" width="2" height="113" fill="#FF69B4" />
<rect x="117" y="8" width="1" height="82" fill="#000000" />
<rect x="118" y="8" width="1" height="1" fill="#181818" />
<rect x="123" y="8" width="1" height="1" fill="#010102" opacity="0.941176" />
<rect x="1" y="9" width="1" height="107" fill="#000000" />
<rect x="5" y="9" width="1" height="1" fill="#0A0A0A" />
<rect x="6" y="9" width="1" height="86" fill="#000000" />
<rect x="118" y="9" width="1" height="84" fill="#000000" />
<rect x="119" y="9" width="1" height="1" fill="#141414" />
<rect x="123" y="9" width="1" height="107" fill="#000000" />
<rect x="0" y="10" width="1" height="1" fill="#030405" opacity="0.713725" />
<rect x="4" y="10" width="2" height="1" fill="#010101" />
<rect x="119" y="10" width="1" height="1" fill="#242424" />
<rect x="120" y="10" width="1" height="1" fill="#010101" />
<rect x="124" y="10" width="1" height="1" fill="#030405" opacity="0.713725" />
<rect x="0" y="11" width="1" height="1" fill="#010101" opacity="0.984314" />
<rect x="4" y="11" width="1" height="2" fill="#0F0F0F" />
<rect x="5" y="11" width="1" height="86" fill="#000000" />
<rect x="119" y="11" width="1" height="82" fill="#000000" />
<rect x="120" y="11" width="1" height="1" fill="#191919" />
<rect x="124" y="11" width="1" height="1" fill="#010101" opacity="0.984314" />
<rect x="0" y="12" width="1" height="100" fill="#000000" />
<rect x="10" y="12" width="39" height="4" fill="#000000" />
<rect x="49" y="12" width="2" height="109" fill="#FF69B4" />
<rect x="76" y="12" width="2" height="109" fill="#FF69B4" />
<rect x="78" y="12" width="36" height="3" fill="#000000" />
<rect x="120" y="12" width="1" height="1" fill="#2A2A2A" />
<rect x="124" y="12" width="1" height="100" fill="#000000" />
<rect x="4" y="13" width="1" height="1" fill="#060606" />
<rect x="120" y="13" width="1" height="1" fill="#313131" />
<rect x="4" y="14" width="1" height="83" fill="#000000" />
<rect x="120" y="14" width="1" height="82" fill="#000000" />
<rect x="78" y="15" width="2" height="1" fill="#C71585" />
<rect x="80" y="15" width="34" height="5" fill="#000000" />
<rect x="10" y="16" width="36" height="2" fill="#000000" />
<rect x="46" y="16" width="1" height="105" fill="#C71585" />
<rect x="47" y="16" width="2" height="105" fill="#FF69B4" />
<rect x="78" y="16" width="2" height="105" fill="#FF69B4" />
<rect x="10" y="18" width="34" height="5" fill="#000000" />
<rect x="44" y="18" width="2" height="103" fill="#FF69B4" />
<rect x="80" y="20" width="2" height="101" fill="#FF69B4" />
<rect x="82" y="20" width="32" height="2" fill="#000000" />
<rect x="82" y="22" width="3" height="1" fill="#C71585" />
<rect x="85" y="22" width="29" height="5" fill="#000000" />
<rect x="10" y="23" width="30" height="5" fill="#000000" />
<rect x="40" y="23" width="2" height="98" fill="#FF69B4" />
<rect x="42" y="23" width="2" height="1" fill="#000000" />
<rect x="82" y="23" width="2" height="98" fill="#FF69B4" />
<rect x="84" y="23" width="1" height="98" fill="#C71585" />
<rect x="42" y="24" width="2" height="97" fill="#FF69B4" />
<rect x="85" y="27" width="2" height="94" fill="#FF69B4" />
<rect x="87" y="27" width="27" height="2" fill="#000000" />
<rect x="10" y="28" width="27" height="9" fill="#000000" />
<rect x="37" y="28" width="3" height="1" fill="#C71585" />
<rect x="37" y="29" width="1" height="92" fill="#C71585" />
<rect x="38" y="29" width="2" height="92" fill="#FF69B4" />
<rect x="87" y="29" width="2" height="92" fill="#FF69B4" />
<rect x="89" y="29" width="25" height="7" fill="#000000" />
<rect x="89" y="36" width="2" height="85" fill="#FF69B4" />
<rect x="91" y="36" width="23" height="2" fill="#000000" />
<rect x="10" y="37" width="25" height="1" fill="#000000" />
<rect x="35" y="37" width="2" height="84" fill="#FF69B4" />
<rect x="10" y="38" width="23" height="7" fill="#000000" />
<rect x="33" y="38" width="2" height="83" fill="#FF69B4" />
<rect x="91" y="38" width="2" height="83" fill="#FF69B4" />
<rect x="93" y="38" width="1" height="83" fill="#C71585" />
<rect x="94" y="38" width="20" height="5" fill="#000000" />
<rect x="94" y="43" width="2" height="1" fill="#C71585" />
<rect x="96" y="43" width="18" height="6" fill="#000000" />
<rect x="94" y="44" width="2" height="77" fill="#FF69B4" />
<rect x="10" y="45" width="21" height="5" fill="#000000" />
<rect x="31" y="45" width="2" height="76" fill="#FF69B4" />
<rect x="96" y="49" width="2" height="72" fill="#FF69B4" />
<rect x="98" y="49" width="16" height="7" fill="#000000" />
<rect x="10" y="50" width="19" height="6" fill="#000000" />
<rect x="29" y="50" width="2" height="71" fill="#FF69B4" />
<rect x="10" y="56" width="16" height="3" fill="#000000" />
<rect x="26" y="56" width="3" height="65" fill="#FF69B4" />
<rect x="98" y="56" width="2" height="65" fill="#FF69B4" />
<rect x="100" y="56" width="14" height="4" fill="#000000" />
<rect x="10" y="59" width="14" height="5" fill="#000000" />
<rect x="24" y="59" width="2" height="62" fill="#FF69B4" />
<rect x="100" y="60" width="2" height="61" fill="#FF69B4" />
<rect x="102" y="60" width="1" height="61" fill="#C71585" />
<rect x="103" y="60" width="11" height="3" fill="#000000" />
<rect x="103" y="63" width="2" height="1" fill="#C71585" />
<rect x="105" y="63" width="9" height="6" fill="#000000" />
<rect x="10" y="64" width="12" height="3" fill="#000000" />
<rect x="22" y="64" width="2" height="57" fill="#FF69B4" />
<rect x="103" y="64" width="2" height="57" fill="#FF69B4" />
<rect x="10" y="67" width="10" height="7" fill="#000000" />
<rect x="20" y="67" width="2" height="1" fill="#C71585" />
<rect x="20" y="68" width="2" height="53" fill="#FF69B4" />
<rect x="105" y="69" width="2" height="52" fill="#FF69B4" />
<rect x="107" y="69" width="7" height="3" fill="#000000" />
<rect x="107" y="72" width="2" height="1" fill="#C71585" />
<rect x="109" y="72" width="5" height="7" fill="#000000" />
<rect x="107" y="73" width="2" height="48" fill="#FF69B4" />
<rect x="10" y="74" width="7" height="4" fill="#000000" />
<rect x="17" y="74" width="3" height="1" fill="#C71585" />
<rect x="17" y="75" width="3" height="46" fill="#FF69B4" />
<rect x="10" y="78" width="5" height="4" fill="#000000" />
<rect x="15" y="78" width="2" height="43" fill="#FF69B4" />
<rect x="109" y="79" width="2" height="42" fill="#FF69B4" />
<rect x="111" y="79" width="1" height="40" fill="#C71585" />
<rect x="112" y="79" width="2" height="3" fill="#000000" />
<rect x="10" y="82" width="3" height="5" fill="#000000" />
<rect x="13" y="82" width="2" height="38" fill="#FF69B4" />
<rect x="112" y="82" width="2" height="1" fill="#C71585" />
<rect x="112" y="83" width="2" height="37" fill="#FF69B4" />
<rect x="10" y="87" width="1" height="3" fill="#000000" />
<rect x="11" y="87" width="2" height="33" fill="#FF69B4" />
<rect x="114" y="87" width="2" height="32" fill="#FF69B4" />
<rect x="8" y="90" width="3" height="28" fill="#FF69B4" />
<rect x="116" y="90" width="2" height="27" fill="#FF69B4" />
<rect x="118" y="93" width="2" height="21" fill="#FF69B4" />
<rect x="6" y="95" width="2" height="21" fill="#FF69B4" />
<rect x="120" y="96" width="1" height="15" fill="#FF69B4" />
<rect x="4" y="97" width="2" height="14" fill="#FF69B4" />
<rect x="4" y="111" width="1" height="1" fill="#FD74B9" />
<rect x="5" y="111" width="1" height="3" fill="#FF69B4" />
<rect x="120" y="111" width="1" height="1" fill="#FD74B9" />
<rect x="0" y="112" width="1" height="1" fill="#010001" />
<rect x="4" y="112" width="1" height="1" fill="#96848D" />
<rect x="120" y="112" width="1" height="1" fill="#EB6EAD" />
<rect x="124" y="112" width="1" height="1" fill="#010001" />
<rect x="0" y="113" width="1" height="1" fill="#090406" opacity="0.984314" />
<rect x="4" y="113" width="1" height="1" fill="#333333" />
<rect x="120" y="113" width="1" height="1" fill="#333333" />
<rect x="124" y="113" width="1" height="1" fill="#090406" opacity="0.984314" />
<rect x="0" y="114" width="1" height="1" fill="#201019" opacity="0.713725" />
<rect x="4" y="114" width="1" height="1" fill="#010101" />
<rect x="5" y="114" width="1" height="1" fill="#FB73B7" />
<rect x="118" y="114" width="1" height="2" fill="#FF69B4" />
<rect x="119" y="114" width="1" height="1" fill="#FA77B9" />
<rect x="120" y="114" width="1" height="1" fill="#010101" />
<rect x="124" y="114" width="1" height="1" fill="#201019" opacity="0.713725" />
<rect x="4" y="115" width="1" height="5" fill="#000000" />
<rect x="5" y="115" width="1" height="1" fill="#333333" />
<rect x="119" y="115" width="1" height="1" fill="#B95787" />
<rect x="120" y="115" width="1" height="5" fill="#000000" />
<rect x="1" y="116" width="1" height="1" fill="#10070C" opacity="0.941176" />
<rect x="5" y="116" width="1" height="5" fill="#000000" />
<rect x="6" y="116" width="1" height="1" fill="#7F7F7F" />
<rect x="7" y="116" width="1" height="1" fill="#FF69B4" />
<rect x="118" y="116" width="1" height="1" fill="#AD7792" />
<rect x="119" y="116" width="1" height="5" fill="#000000" />
<rect x="123" y="116" width="1" height="1" fill="#10070C" opacity="0.941176" />
<rect x="6" y="117" width="1" height="1" fill="#010101" />
<rect x="7" y="117" width="1" height="1" fill="#868686" />
<rect x="116" y="117" width="1" height="1" fill="#FF69B4" />
<rect x="117" y="117" width="1" height="1" fill="#C8769F" />
<rect x="118" y="117" width="1" height="1" fill="#030202" />
<rect x="2" y="118" width="1" height="1" fill="#201019" opacity="0.713725" />
<rect x="6" y="118" width="1" height="4" fill="#000000" />
<rect x="7" y="118" width="1" height="1" fill="#010101" />
<rect x="8" y="118" width="1" height="1" fill="#887E83" />
<rect x="9" y="118" width="2" height="1" fill="#FF69B4" />
<rect x="116" y="118" width="1" height="1" fill="#C1749A" />
<rect x="117" y="118" width="1" height="1" fill="#010101" />
<rect x="118" y="118" width="1" height="4" fill="#000000" />
<rect x="122" y="118" width="1" height="1" fill="#201019" opacity="0.713725" />
<rect x="3" y="119" width="1" height="1" fill="#10070C" opacity="0.941176" />
<rect x="7" y="119" width="2" height="4" fill="#000000" />
<rect x="9" y="119" width="1" height="1" fill="#373436" />
<rect x="10" y="119" width="1" height="1" fill="#FD70B6" />
<rect x="111" y="119" width="1" height="1" fill="#DE3899" />
<rect x="114" y="119" width="1" height="1" fill="#FE6CB5" />
<rect x="115" y="119" width="1" height="1" fill="#854967" />
<rect x="116" y="119" width="1" height="1" fill="#010001" />
<rect x="117" y="119" width="1" height="4" fill="#000000" />
<rect x="121" y="119" width="1" height="1" fill="#10070C" opacity="0.941176" />
<rect x="4" y="120" width="1" height="1" fill="#10070C" opacity="0.941176" />
<rect x="9" y="120" width="1" height="4" fill="#000000" />
<rect x="10" y="120" width="1" height="1" fill="#010101" />
<rect x="11" y="120" width="1" height="1" fill="#43373D" />
<rect x="12" y="120" width="1" height="1" fill="#EE6DAE" />
<rect x="13" y="120" width="1" height="1" fill="#FF6BB5" />
<rect x="14" y="120" width="1" height="1" fill="#FF69B4" />
<rect x="111" y="120" width="1" height="1" fill="#FF6AB4" />
<rect x="112" y="120" width="1" height="1" fill="#FE69B3" />
<rect x="113" y="120" width="1" height="1" fill="#B05482" />
<rect x="114" y="120" width="1" height="1" fill="#010101" />
<rect x="115" y="120" width="2" height="3" fill="#000000" />
<rect x="120" y="120" width="1" height="1" fill="#10070C" opacity="0.941176" />
<rect x="5" y="121" width="1" height="1" fill="#10070C" opacity="0.941176" />
<rect x="10" y="121" width="2" height="3" fill="#000000" />
<rect x="12" y="121" width="1" height="1" fill="#010001" />
<rect x="13" y="121" width="1" height="1" fill="#10070B" />
<rect x="14" y="121" width="1" height="1" fill="#1B0B13" />
<rect x="15" y="121" width="100" height="3" fill="#000000" />
<rect x="119" y="121" width="1" height="1" fill="#10070C" opacity="0.941176" />
<rect x="6" y="122" width="1" height="1" fill="#201019" opacity="0.713725" />
<rect x="12" y="122" width="3" height="2" fill="#000000" />
<rect x="118" y="122" width="1" height="1" fill="#201019" opacity="0.713725" />
<rect x="8" y="123" width="1" height="1" fill="#10070C" opacity="0.941176" />
<rect x="115" y="123" width="1" height="1" fill="#000000" />
<rect x="116" y="123" width="1" height="1" fill="#10070C" opacity="0.941176" />
<rect x="10" y="124" width="1" height="1" fill="#201019" opacity="0.713725" />
<rect x="11" y="124" width="1" height="1" fill="#090406" opacity="0.984314" />
<rect x="12" y="124" width="1" height="1" fill="#010001" />
<rect x="13" y="124" width="99" height="1" fill="#000000" />
<rect x="112" y="124" width="1" height="1" fill="#010001" />
<rect x="113" y="124" width="1" height="1" fill="#090406" opacity="0.984314" />
<rect x="114" y="124" width="1" height="1" fill="#201019" opacity="0.713725" />
</svg>